<svg fill="none" height="1em" viewBox="0 0 109 113" width="1em" xmlns="http://www.w3.org/2000/svg"><path d="M63.708 110.284c-2.86 3.601-8.658 1.628-8.727-2.97L53.974 40.063h45.22c8.19 0 12.758 9.46 7.665 15.874z" fill="url(#brand-supabase-0)"></path><path d="M63.708 110.284c-2.86 3.601-8.658 1.628-8.727-2.97L53.974 40.063h45.22c8.19 0 12.758 9.46 7.665 15.874z" fill="url(#brand-supabase-1)" fill-opacity=".2"></path><path d="M45.317 2.071c2.86-3.601 8.658-1.628 8.726 2.97l.442 67.251H9.831c-8.19 0-12.759-9.46-7.666-15.875z" fill="#3ECF8E"></path><defs><linearGradient gradientUnits="userSpaceOnUse" id="brand-supabase-0" x1="53.974" x2="94.164" y1="54.974" y2="71.83"><stop stop-color="#249361"></stop><stop offset="1" stop-color="#3ECF8E"></stop></linearGradient><linearGradient gradientUnits="userSpaceOnUse" id="brand-supabase-1" x1="36.156" x2="54.484" y1="30.578" y2="65.081"><stop></stop><stop offset="1" stop-opacity="0"></stop></linearGradient></defs></svg>
